<?xml version="1.0" encoding="utf-8"?> <svg version="1.1" id="Layer_1" xmlns="http://www.w3.org/2000/svg" xmlns:xlink="http://www.w3.org/1999/xlink" x="0px" y="0px" viewBox="0 0 75 75" style="enable-background:new 0 0 75 75;" xml:space="preserve"> <path fill="#BCBCBB" d="M36.5,34.1L12.8,20.5c-1-0.6-2.2-0.6-3.2,0c-1,0.6-1.6,1.6-1.6,2.7v27.3c0,1.1,0.6,2.2,1.6,2.7 c0.5,0.3,1,0.4,1.6,0.4c0.5,0,1.1-0.1,1.6-0.4l23.7-13.7c1-0.6,1.6-1.6,1.6-2.7C38.1,35.7,37.5,34.7,36.5,34.1z"/> <path fill="#2882C5" d="M62,51.2c-8.8-3-17.5-4.6-26.1-4.6c-1.8,0-3.7,0.1-5.5,0.2l-0.2,0.1l-11.7,6.8l35.2,0 C57.1,53.7,59.8,52.8,62,51.2C62,51.3,62,51.2,62,51.2L62,51.2z"/> <path fill="#F6A520" d="M41.1,38.2c0,0,0,0.1,0,0.1c-0.4,1.7-1.5,3.2-3,4.1l-7.9,4.5L30,47.1l0.2,0c1.9-0.2,3.8-0.2,5.7-0.2 c8.5,0,17.2,1.5,26,4.5c0,0,0.1,0,0.1-0.1c2.8-2,4.6-5.1,5.6-8.6c0,0,0-0.1,0-0.1C58.7,39.6,49.8,38.1,41.1,38.2z"/> <path fill="#8DBF43" d="M67.8,32.1c0,0,0-0.1,0-0.1c-6.5-1.7-13-2.6-19.4-2.6c-4,0-7.9,0.3-11.8,1l-0.1,0l0.1,0.1l1.6,0.9 c2,1.1,3.2,3.3,3.2,5.5c0,0.5-0.1,1-0.2,1.5c0,0,0,0.1,0,0.1h0c8.7-0.1,17.5,1.4,26.4,4.4l0,0c0,0,0-0.1,0-0.1 c0.5-1.9,0.7-3.8,0.8-5.9C68.3,35.2,68.1,33.6,67.8,32.1z"/> <path fill="#E42229" d="M67.8,32.2c0,0,0-0.1,0-0.1c-1.4-6.5-5.5-12-13.5-12c-0.1,0-0.2,0-0.2,0c-9.1,0-17.8,1.9-26.2,5.4l8.7,5 l0.1,0.1c3.8-0.7,7.7-1,11.6-1C54.7,29.5,61.3,30.4,67.8,32.2L67.8,32.2z"/> </svg>